<?xml version="1.0" encoding="utf-8"?>
<svg xmlns="http://www.w3.org/2000/svg" xmlns:xlink="http://www.w3.org/1999/xlink" width="900" height="600" viewBox="0 0 3600 2400">
<defs>
  <clipPath id="clip620">
    <rect x="0" y="0" width="3600" height="2400"/>
  </clipPath>
</defs>
<path clip-path="url(#clip620)" d="
M0 2400 L3600 2400 L3600 0 L0 0  Z
  " fill="#ffffff" fill-rule="evenodd" fill-opacity="1"/>
<defs>
  <clipPath id="clip621">
    <rect x="720" y="0" width="2521" height="2400"/>
  </clipPath>
</defs>
<path clip-path="url(#clip620)" d="
M147.95 2278.45 L3552.76 2278.45 L3552.76 47.2441 L147.95 47.2441  Z
  " fill="#ffffff" fill-rule="evenodd" fill-opacity="1"/>
<defs>
  <clipPath id="clip622">
    <rect x="147" y="47" width="3406" height="2232"/>
  </clipPath>
</defs>
<polyline clip-path="url(#clip622)" style="stroke:#000000; stroke-width:2; stroke-opacity:0.1; fill:none" points="
  565.521,2278.45 565.521,47.2441 
  "/>
<polyline clip-path="url(#clip622)" style="stroke:#000000; stroke-width:2; stroke-opacity:0.1; fill:none" points="
  1207.94,2278.45 1207.94,47.2441 
  "/>
<polyline clip-path="url(#clip622)" style="stroke:#000000; stroke-width:2; stroke-opacity:0.1; fill:none" points="
  1850.35,2278.45 1850.35,47.2441 
  "/>
<polyline clip-path="url(#clip622)" style="stroke:#000000; stroke-width:2; stroke-opacity:0.1; fill:none" points="
  2492.77,2278.45 2492.77,47.2441 
  "/>
<polyline clip-path="url(#clip622)" style="stroke:#000000; stroke-width:2; stroke-opacity:0.1; fill:none" points="
  3135.19,2278.45 3135.19,47.2441 
  "/>
<polyline clip-path="url(#clip620)" style="stroke:#000000; stroke-width:4; stroke-opacity:1; fill:none" points="
  147.95,2278.45 3552.76,2278.45 
  "/>
<polyline clip-path="url(#clip620)" style="stroke:#000000; stroke-width:4; stroke-opacity:1; fill:none" points="
  565.521,2278.45 565.521,2251.67 
  "/>
<polyline clip-path="url(#clip620)" style="stroke:#000000; stroke-width:4; stroke-opacity:1; fill:none" points="
  1207.94,2278.45 1207.94,2251.67 
  "/>
<polyline clip-path="url(#clip620)" style="stroke:#000000; stroke-width:4; stroke-opacity:1; fill:none" points="
  1850.35,2278.45 1850.35,2251.67 
  "/>
<polyline clip-path="url(#clip620)" style="stroke:#000000; stroke-width:4; stroke-opacity:1; fill:none" points="
  2492.77,2278.45 2492.77,2251.67 
  "/>
<polyline clip-path="url(#clip620)" style="stroke:#000000; stroke-width:4; stroke-opacity:1; fill:none" points="
  3135.19,2278.45 3135.19,2251.67 
  "/>
<path clip-path="url(#clip620)" d="M 0 0 M536.933 2331.89 L566.609 2331.89 L566.609 2335.83 L536.933 2335.83 L536.933 2331.89 Z" fill="#000000" fill-rule="evenodd" fill-opacity="1" /><path clip-path="url(#clip620)" d="M 0 0 M584.525 2318.23 L572.72 2336.68 L584.525 2336.68 L584.525 2318.23 M583.298 2314.16 L589.178 2314.16 L589.178 2336.68 L594.109 2336.68 L594.109 2340.57 L589.178 2340.57 L589.178 2348.72 L584.525 2348.72 L584.525 2340.57 L568.923 2340.57 L568.923 2336.06 L583.298 2314.16 Z" fill="#000000" fill-rule="evenodd" fill-opacity="1" /><path clip-path="url(#clip620)" d="M 0 0 M1180.39 2331.89 L1210.07 2331.89 L1210.07 2335.83 L1180.39 2335.83 L1180.39 2331.89 Z" fill="#000000" fill-rule="evenodd" fill-opacity="1" /><path clip-path="url(#clip620)" d="M 0 0 M1219.16 2344.78 L1235.48 2344.78 L1235.48 2348.72 L1213.54 2348.72 L1213.54 2344.78 Q1216.2 2342.03 1220.78 2337.4 Q1225.39 2332.75 1226.57 2331.41 Q1228.82 2328.88 1229.7 2327.15 Q1230.6 2325.39 1230.6 2323.7 Q1230.6 2320.94 1228.65 2319.21 Q1226.73 2317.47 1223.63 2317.47 Q1221.43 2317.47 1218.98 2318.23 Q1216.55 2319 1213.77 2320.55 L1213.77 2315.83 Q1216.59 2314.69 1219.05 2314.11 Q1221.5 2313.53 1223.54 2313.53 Q1228.91 2313.53 1232.1 2316.22 Q1235.3 2318.91 1235.3 2323.4 Q1235.3 2325.53 1234.49 2327.45 Q1233.7 2329.34 1231.59 2331.94 Q1231.02 2332.61 1227.91 2335.83 Q1224.81 2339.02 1219.16 2344.78 Z" fill="#000000" fill-rule="evenodd" fill-opacity="1" /><path clip-path="url(#clip620)" d="M 0 0 M1850.35 2317.24 Q1846.74 2317.24 1844.91 2320.8 Q1843.11 2324.35 1843.11 2331.47 Q1843.11 2338.58 1844.91 2342.15 Q1846.74 2345.69 1850.35 2345.69 Q1853.99 2345.69 1855.79 2342.15 Q1857.62 2338.58 1857.62 2331.47 Q1857.62 2324.35 1855.79 2320.8 Q1853.99 2317.24 1850.35 2317.24 M1850.35 2313.53 Q1856.16 2313.53 1859.22 2318.14 Q1862.3 2322.72 1862.3 2331.47 Q1862.3 2340.2 1859.22 2344.81 Q1856.16 2349.39 1850.35 2349.39 Q1844.54 2349.39 1841.46 2344.81 Q1838.41 2340.2 1838.41 2331.47 Q1838.41 2322.72 1841.46 2318.14 Q1844.54 2313.53 1850.35 2313.53 Z" fill="#000000" fill-rule="evenodd" fill-opacity="1" /><path clip-path="url(#clip620)" d="M 0 0 M2487.42 2344.78 L2503.74 2344.78 L2503.74 2348.72 L2481.8 2348.72 L2481.8 2344.78 Q2484.46 2342.03 2489.04 2337.4 Q2493.65 2332.75 2494.83 2331.41 Q2497.07 2328.88 2497.95 2327.15 Q2498.86 2325.39 2498.86 2323.7 Q2498.86 2320.94 2496.91 2319.21 Q2494.99 2317.47 2491.89 2317.47 Q2489.69 2317.47 2487.24 2318.23 Q2484.81 2319 2482.03 2320.55 L2482.03 2315.83 Q2484.85 2314.69 2487.31 2314.11 Q2489.76 2313.53 2491.8 2313.53 Q2497.17 2313.53 2500.36 2316.22 Q2503.56 2318.91 2503.56 2323.4 Q2503.56 2325.53 2502.75 2327.45 Q2501.96 2329.34 2499.85 2331.94 Q2499.27 2332.61 2496.17 2335.83 Q2493.07 2339.02 2487.42 2344.78 Z" fill="#000000" fill-rule="evenodd" fill-opacity="1" /><path clip-path="url(#clip620)" d="M 0 0 M3138.19 2318.23 L3126.39 2336.68 L3138.19 2336.68 L3138.19 2318.23 M3136.97 2314.16 L3142.85 2314.16 L3142.85 2336.68 L3147.78 2336.68 L3147.78 2340.57 L3142.85 2340.57 L3142.85 2348.72 L3138.19 2348.72 L3138.19 2340.57 L3122.59 2340.57 L3122.59 2336.06 L3136.97 2314.16 Z" fill="#000000" fill-rule="evenodd" fill-opacity="1" /><polyline clip-path="url(#clip622)" style="stroke:#000000; stroke-width:2; stroke-opacity:0.1; fill:none" points="
  147.95,1962.71 3552.76,1962.71 
  "/>
<polyline clip-path="url(#clip622)" style="stroke:#000000; stroke-width:2; stroke-opacity:0.1; fill:none" points="
  147.95,1541.73 3552.76,1541.73 
  "/>
<polyline clip-path="url(#clip622)" style="stroke:#000000; stroke-width:2; stroke-opacity:0.1; fill:none" points="
  147.95,1120.75 3552.76,1120.75 
  "/>
<polyline clip-path="url(#clip622)" style="stroke:#000000; stroke-width:2; stroke-opacity:0.1; fill:none" points="
  147.95,699.766 3552.76,699.766 
  "/>
<polyline clip-path="url(#clip622)" style="stroke:#000000; stroke-width:2; stroke-opacity:0.1; fill:none" points="
  147.95,278.784 3552.76,278.784 
  "/>
<polyline clip-path="url(#clip620)" style="stroke:#000000; stroke-width:4; stroke-opacity:1; fill:none" points="
  147.95,2278.45 147.95,47.2441 
  "/>
<polyline clip-path="url(#clip620)" style="stroke:#000000; stroke-width:4; stroke-opacity:1; fill:none" points="
  147.95,1962.71 188.808,1962.71 
  "/>
<polyline clip-path="url(#clip620)" style="stroke:#000000; stroke-width:4; stroke-opacity:1; fill:none" points="
  147.95,1541.73 188.808,1541.73 
  "/>
<polyline clip-path="url(#clip620)" style="stroke:#000000; stroke-width:4; stroke-opacity:1; fill:none" points="
  147.95,1120.75 188.808,1120.75 
  "/>
<polyline clip-path="url(#clip620)" style="stroke:#000000; stroke-width:4; stroke-opacity:1; fill:none" points="
  147.95,699.766 188.808,699.766 
  "/>
<polyline clip-path="url(#clip620)" style="stroke:#000000; stroke-width:4; stroke-opacity:1; fill:none" points="
  147.95,278.784 188.808,278.784 
  "/>
<path clip-path="url(#clip620)" d="M 0 0 M73.0475 1945.43 L91.4039 1945.43 L91.4039 1949.37 L77.3299 1949.37 L77.3299 1957.84 Q78.3484 1957.49 79.3669 1957.33 Q80.3855 1957.14 81.404 1957.14 Q87.191 1957.14 90.5706 1960.32 Q93.9502 1963.49 93.9502 1968.9 Q93.9502 1974.48 90.478 1977.58 Q87.0058 1980.66 80.6864 1980.66 Q78.5105 1980.66 76.242 1980.29 Q73.9966 1979.92 71.5892 1979.18 L71.5892 1974.48 Q73.6725 1975.62 75.8947 1976.17 Q78.1169 1976.73 80.5938 1976.73 Q84.5984 1976.73 86.9363 1974.62 Q89.2743 1972.51 89.2743 1968.9 Q89.2743 1965.29 86.9363 1963.19 Q84.5984 1961.08 80.5938 1961.08 Q78.7188 1961.08 76.8438 1961.5 Q74.992 1961.91 73.0475 1962.79 L73.0475 1945.43 Z" fill="#000000" fill-rule="evenodd" fill-opacity="1" /><path clip-path="url(#clip620)" d="M 0 0 M47.0292 1555.07 L54.668 1555.07 L54.668 1528.71 L46.3579 1530.38 L46.3579 1526.12 L54.6217 1524.45 L59.2976 1524.45 L59.2976 1555.07 L66.9365 1555.07 L66.9365 1559.01 L47.0292 1559.01 L47.0292 1555.07 Z" fill="#000000" fill-rule="evenodd" fill-opacity="1" /><path clip-path="url(#clip620)" d="M 0 0 M82.0058 1527.53 Q78.3947 1527.53 76.566 1531.09 Q74.7605 1534.63 74.7605 1541.76 Q74.7605 1548.87 76.566 1552.44 Q78.3947 1555.98 82.0058 1555.98 Q85.6401 1555.98 87.4456 1552.44 Q89.2743 1548.87 89.2743 1541.76 Q89.2743 1534.63 87.4456 1531.09 Q85.6401 1527.53 82.0058 1527.53 M82.0058 1523.82 Q87.816 1523.82 90.8715 1528.43 Q93.9502 1533.01 93.9502 1541.76 Q93.9502 1550.49 90.8715 1555.1 Q87.816 1559.68 82.0058 1559.68 Q76.1957 1559.68 73.117 1555.1 Q70.0614 1550.49 70.0614 1541.76 Q70.0614 1533.01 73.117 1528.43 Q76.1957 1523.82 82.0058 1523.82 Z" fill="#000000" fill-rule="evenodd" fill-opacity="1" /><path clip-path="url(#clip620)" d="M 0 0 M48.0245 1134.09 L55.6634 1134.09 L55.6634 1107.73 L47.3532 1109.39 L47.3532 1105.13 L55.6171 1103.47 L60.293 1103.47 L60.293 1134.09 L67.9318 1134.09 L67.9318 1138.03 L48.0245 1138.03 L48.0245 1134.09 Z" fill="#000000" fill-rule="evenodd" fill-opacity="1" /><path clip-path="url(#clip620)" d="M 0 0 M73.0475 1103.47 L91.4039 1103.47 L91.4039 1107.4 L77.3299 1107.4 L77.3299 1115.88 Q78.3484 1115.53 79.3669 1115.37 Q80.3855 1115.18 81.404 1115.18 Q87.191 1115.18 90.5706 1118.35 Q93.9502 1121.52 93.9502 1126.94 Q93.9502 1132.52 90.478 1135.62 Q87.0058 1138.7 80.6864 1138.7 Q78.5105 1138.7 76.242 1138.33 Q73.9966 1137.96 71.5892 1137.22 L71.5892 1132.52 Q73.6725 1133.65 75.8947 1134.21 Q78.1169 1134.76 80.5938 1134.76 Q84.5984 1134.76 86.9363 1132.66 Q89.2743 1130.55 89.2743 1126.94 Q89.2743 1123.33 86.9363 1121.22 Q84.5984 1119.12 80.5938 1119.12 Q78.7188 1119.12 76.8438 1119.53 Q74.992 1119.95 73.0475 1120.83 L73.0475 1103.47 Z" fill="#000000" fill-rule="evenodd" fill-opacity="1" /><path clip-path="url(#clip620)" d="M 0 0 M50.6171 713.111 L66.9365 713.111 L66.9365 717.046 L44.9921 717.046 L44.9921 713.111 Q47.6541 710.356 52.2375 705.727 Q56.8439 701.074 58.0245 699.731 Q60.2698 697.208 61.1494 695.472 Q62.0522 693.713 62.0522 692.023 Q62.0522 689.268 60.1078 687.532 Q58.1865 685.796 55.0847 685.796 Q52.8856 685.796 50.4319 686.56 Q48.0014 687.324 45.2236 688.875 L45.2236 684.153 Q48.0477 683.018 50.5014 682.44 Q52.955 681.861 54.9921 681.861 Q60.3624 681.861 63.5568 684.546 Q66.7513 687.231 66.7513 691.722 Q66.7513 693.852 65.9411 695.773 Q65.1541 697.671 63.0476 700.264 Q62.4689 700.935 59.367 704.153 Q56.2652 707.347 50.6171 713.111 Z" fill="#000000" fill-rule="evenodd" fill-opacity="1" /><path clip-path="url(#clip620)" d="M 0 0 M82.0058 685.565 Q78.3947 685.565 76.566 689.129 Q74.7605 692.671 74.7605 699.801 Q74.7605 706.907 76.566 710.472 Q78.3947 714.014 82.0058 714.014 Q85.6401 714.014 87.4456 710.472 Q89.2743 706.907 89.2743 699.801 Q89.2743 692.671 87.4456 689.129 Q85.6401 685.565 82.0058 685.565 M82.0058 681.861 Q87.816 681.861 90.8715 686.467 Q93.9502 691.051 93.9502 699.801 Q93.9502 708.527 90.8715 713.134 Q87.816 717.717 82.0058 717.717 Q76.1957 717.717 73.117 713.134 Q70.0614 708.527 70.0614 699.801 Q70.0614 691.051 73.117 686.467 Q76.1957 681.861 82.0058 681.861 Z" fill="#000000" fill-rule="evenodd" fill-opacity="1" /><path clip-path="url(#clip620)" d="M 0 0 M51.6125 292.129 L67.9318 292.129 L67.9318 296.064 L45.9875 296.064 L45.9875 292.129 Q48.6495 289.374 53.2328 284.745 Q57.8393 280.092 59.0198 278.749 Q61.2652 276.226 62.1448 274.49 Q63.0476 272.731 63.0476 271.041 Q63.0476 268.286 61.1032 266.55 Q59.1819 264.814 56.08 264.814 Q53.881 264.814 51.4273 265.578 Q48.9967 266.342 46.219 267.893 L46.219 263.171 Q49.043 262.037 51.4967 261.458 Q53.9504 260.879 55.9874 260.879 Q61.3578 260.879 64.5522 263.564 Q67.7466 266.249 67.7466 270.74 Q67.7466 272.87 66.9365 274.791 Q66.1494 276.689 64.0429 279.282 Q63.4642 279.953 60.3624 283.171 Q57.2606 286.365 51.6125 292.129 Z" fill="#000000" fill-rule="evenodd" fill-opacity="1" /><path clip-path="url(#clip620)" d="M 0 0 M73.0475 261.504 L91.4039 261.504 L91.4039 265.439 L77.3299 265.439 L77.3299 273.911 Q78.3484 273.564 79.3669 273.402 Q80.3855 273.217 81.404 273.217 Q87.191 273.217 90.5706 276.388 Q93.9502 279.56 93.9502 284.976 Q93.9502 290.555 90.478 293.657 Q87.0058 296.735 80.6864 296.735 Q78.5105 296.735 76.242 296.365 Q73.9966 295.995 71.5892 295.254 L71.5892 290.555 Q73.6725 291.689 75.8947 292.245 Q78.1169 292.8 80.5938 292.8 Q84.5984 292.8 86.9363 290.694 Q89.2743 288.587 89.2743 284.976 Q89.2743 281.365 86.9363 279.259 Q84.5984 277.152 80.5938 277.152 Q78.7188 277.152 76.8438 277.569 Q74.992 277.986 73.0475 278.865 L73.0475 261.504 Z" fill="#000000" fill-rule="evenodd" fill-opacity="1" /><polyline clip-path="url(#clip622)" style="stroke:#009af9; stroke-width:4; stroke-opacity:1; fill:none" points="
  244.313,110.391 247.525,118.803 250.737,127.197 253.949,135.575 257.161,143.935 260.373,152.279 263.585,160.606 266.797,168.916 270.009,177.21 273.221,185.486 
  276.433,193.746 279.646,201.989 282.858,210.215 286.07,218.424 289.282,226.616 292.494,234.792 295.706,242.95 298.918,251.092 302.13,259.217 305.342,267.325 
  308.554,275.416 311.766,283.491 314.978,291.548 318.19,299.589 321.403,307.613 324.615,315.62 327.827,323.61 331.039,331.584 334.251,339.54 337.463,347.48 
  340.675,355.403 343.887,363.309 347.099,371.198 350.311,379.07 353.523,386.926 356.735,394.765 359.948,402.586 363.16,410.391 366.372,418.18 369.584,425.951 
  372.796,433.705 376.008,441.443 379.22,449.164 382.432,456.868 385.644,464.555 388.856,472.225 392.068,479.879 395.28,487.515 398.493,495.135 401.705,502.738 
  404.917,510.324 408.129,517.893 411.341,525.446 414.553,532.981 417.765,540.5 420.977,548.002 424.189,555.487 427.401,562.955 430.613,570.407 433.825,577.841 
  437.037,585.259 440.25,592.66 443.462,600.044 446.674,607.411 449.886,614.761 453.098,622.095 456.31,629.411 459.522,636.711 462.734,643.994 465.946,651.26 
  469.158,658.51 472.37,665.742 475.582,672.958 478.795,680.157 482.007,687.339 485.219,694.504 488.431,701.652 491.643,708.783 494.855,715.898 498.067,722.996 
  501.279,730.077 504.491,737.141 507.703,744.188 510.915,751.218 514.127,758.232 517.339,765.229 520.552,772.209 523.764,779.172 526.976,786.118 530.188,793.047 
  533.4,799.96 536.612,806.855 539.824,813.734 543.036,820.596 546.248,827.441 549.46,834.27 552.672,841.081 555.884,847.876 559.097,854.654 562.309,861.415 
  565.521,868.159 568.733,874.886 571.945,881.596 575.157,888.29 578.369,894.967 581.581,901.627 584.793,908.27 588.005,914.896 591.217,921.506 594.429,928.098 
  597.642,934.674 600.854,941.233 604.066,947.775 607.278,954.3 610.49,960.808 613.702,967.3 616.914,973.775 620.126,980.232 623.338,986.674 626.55,993.098 
  629.762,999.505 632.974,1005.9 636.186,1012.27 639.399,1018.63 642.611,1024.97 645.823,1031.29 649.035,1037.6 652.247,1043.88 655.459,1050.16 658.671,1056.41 
  661.883,1062.65 665.095,1068.87 668.307,1075.08 671.519,1081.27 674.731,1087.44 677.944,1093.59 681.156,1099.73 684.368,1105.85 687.58,1111.96 690.792,1118.05 
  694.004,1124.12 697.216,1130.17 700.428,1136.21 703.64,1142.23 706.852,1148.23 710.064,1154.22 713.276,1160.19 716.489,1166.14 719.701,1172.07 722.913,1177.99 
  726.125,1183.9 729.337,1189.78 732.549,1195.65 735.761,1201.5 738.973,1207.34 742.185,1213.15 745.397,1218.95 748.609,1224.74 751.821,1230.51 755.033,1236.26 
  758.246,1241.99 761.458,1247.71 764.67,1253.41 767.882,1259.09 771.094,1264.76 774.306,1270.41 777.518,1276.04 780.73,1281.66 783.942,1287.25 787.154,1292.84 
  790.366,1298.4 793.578,1303.95 796.791,1309.48 800.003,1315 803.215,1320.5 806.427,1325.98 809.639,1331.44 812.851,1336.89 816.063,1342.32 819.275,1347.73 
  822.487,1353.13 825.699,1358.51 828.911,1363.87 832.123,1369.22 835.336,1374.55 838.548,1379.86 841.76,1385.16 844.972,1390.44 848.184,1395.7 851.396,1400.94 
  854.608,1406.17 857.82,1411.39 861.032,1416.58 864.244,1421.76 867.456,1426.92 870.668,1432.06 873.88,1437.19 877.093,1442.3 880.305,1447.4 883.517,1452.47 
  886.729,1457.53 889.941,1462.58 893.153,1467.6 896.365,1472.61 899.577,1477.61 902.789,1482.58 906.001,1487.54 909.213,1492.48 912.425,1497.41 915.638,1502.32 
  918.85,1507.21 922.062,1512.08 925.274,1516.94 928.486,1521.78 931.698,1526.61 934.91,1531.42 938.122,1536.21 941.334,1540.98 944.546,1545.74 947.758,1550.48 
  950.97,1555.2 954.182,1559.91 957.395,1564.6 960.607,1569.27 963.819,1573.93 967.031,1578.57 970.243,1583.19 973.455,1587.79 976.667,1592.38 979.879,1596.95 
  983.091,1601.51 986.303,1606.05 989.515,1610.57 992.727,1615.07 995.94,1619.56 999.152,1624.03 1002.36,1628.49 1005.58,1632.92 1008.79,1637.34 1012,1641.75 
  1015.21,1646.13 1018.42,1650.5 1021.64,1654.86 1024.85,1659.19 1028.06,1663.51 1031.27,1667.81 1034.48,1672.1 1037.7,1676.37 1040.91,1680.62 1044.12,1684.86 
  1047.33,1689.07 1050.54,1693.27 1053.76,1697.46 1056.97,1701.63 1060.18,1705.78 1063.39,1709.91 1066.61,1714.03 1069.82,1718.13 1073.03,1722.21 1076.24,1726.28 
  1079.45,1730.33 1082.67,1734.36 1085.88,1738.38 1089.09,1742.38 1092.3,1746.36 1095.51,1750.33 1098.73,1754.27 1101.94,1758.21 1105.15,1762.12 1108.36,1766.02 
  1111.57,1769.9 1114.79,1773.77 1118,1777.61 1121.21,1781.45 1124.42,1785.26 1127.63,1789.06 1130.85,1792.84 1134.06,1796.6 1137.27,1800.35 1140.48,1804.08 
  1143.7,1807.79 1146.91,1811.49 1150.12,1815.17 1153.33,1818.83 1156.54,1822.47 1159.76,1826.1 1162.97,1829.71 1166.18,1833.31 1169.39,1836.89 1172.6,1840.45 
  1175.82,1843.99 1179.03,1847.52 1182.24,1851.03 1185.45,1854.53 1188.66,1858 1191.88,1861.47 1195.09,1864.91 1198.3,1868.34 1201.51,1871.75 1204.72,1875.14 
  1207.94,1878.52 1211.15,1881.87 1214.36,1885.22 1217.57,1888.54 1220.79,1891.85 1224,1895.14 1227.21,1898.42 1230.42,1901.68 1233.63,1904.92 1236.85,1908.14 
  1240.06,1911.35 1243.27,1914.54 1246.48,1917.72 1249.69,1920.87 1252.91,1924.01 1256.12,1927.14 1259.33,1930.25 1262.54,1933.34 1265.75,1936.41 1268.97,1939.46 
  1272.18,1942.5 1275.39,1945.53 1278.6,1948.53 1281.81,1951.52 1285.03,1954.49 1288.24,1957.45 1291.45,1960.39 1294.66,1963.31 1297.88,1966.21 1301.09,1969.1 
  1304.3,1971.97 1307.51,1974.83 1310.72,1977.66 1313.94,1980.49 1317.15,1983.29 1320.36,1986.08 1323.57,1988.85 1326.78,1991.6 1330,1994.34 1333.21,1997.06 
  1336.42,1999.76 1339.63,2002.44 1342.84,2005.11 1346.06,2007.76 1349.27,2010.4 1352.48,2013.02 1355.69,2015.62 1358.9,2018.21 1362.12,2020.77 1365.33,2023.32 
  1368.54,2025.86 1371.75,2028.38 1374.97,2030.88 1378.18,2033.36 1381.39,2035.83 1384.6,2038.28 1387.81,2040.71 1391.03,2043.13 1394.24,2045.53 1397.45,2047.91 
  1400.66,2050.28 1403.87,2052.62 1407.09,2054.96 1410.3,2057.27 1413.51,2059.57 1416.72,2061.85 1419.93,2064.12 1423.15,2066.37 1426.36,2068.6 1429.57,2070.81 
  1432.78,2073.01 1435.99,2075.19 1439.21,2077.35 1442.42,2079.5 1445.63,2081.63 1448.84,2083.74 1452.06,2085.84 1455.27,2087.92 1458.48,2089.98 1461.69,2092.03 
  1464.9,2094.06 1468.12,2096.07 1471.33,2098.07 1474.54,2100.04 1477.75,2102.01 1480.96,2103.95 1484.18,2105.88 1487.39,2107.79 1490.6,2109.68 1493.81,2111.56 
  1497.02,2113.42 1500.24,2115.27 1503.45,2117.09 1506.66,2118.9 1509.87,2120.7 1513.08,2122.47 1516.3,2124.23 1519.51,2125.98 1522.72,2127.7 1525.93,2129.41 
  1529.14,2131.1 1532.36,2132.78 1535.57,2134.44 1538.78,2136.08 1541.99,2137.71 1545.21,2139.31 1548.42,2140.9 1551.63,2142.48 1554.84,2144.04 1558.05,2145.58 
  1561.27,2147.1 1564.48,2148.61 1567.69,2150.1 1570.9,2151.57 1574.11,2153.03 1577.33,2154.47 1580.54,2155.89 1583.75,2157.3 1586.96,2158.69 1590.17,2160.06 
  1593.39,2161.41 1596.6,2162.75 1599.81,2164.08 1603.02,2165.38 1606.23,2166.67 1609.45,2167.94 1612.66,2169.19 1615.87,2170.43 1619.08,2171.65 1622.3,2172.86 
  1625.51,2174.04 1628.72,2175.21 1631.93,2176.37 1635.14,2177.5 1638.36,2178.62 1641.57,2179.73 1644.78,2180.81 1647.99,2181.88 1651.2,2182.94 1654.42,2183.97 
  1657.63,2184.99 1660.84,2185.99 1664.05,2186.98 1667.26,2187.95 1670.48,2188.9 1673.69,2189.83 1676.9,2190.75 1680.11,2191.65 1683.32,2192.53 1686.54,2193.4 
  1689.75,2194.25 1692.96,2195.09 1696.17,2195.9 1699.39,2196.7 1702.6,2197.48 1705.81,2198.25 1709.02,2199 1712.23,2199.73 1715.45,2200.45 1718.66,2201.15 
  1721.87,2201.83 1725.08,2202.49 1728.29,2203.14 1731.51,2203.77 1734.72,2204.39 1737.93,2204.99 1741.14,2205.57 1744.35,2206.13 1747.57,2206.68 1750.78,2207.21 
  1753.99,2207.72 1757.2,2208.22 1760.41,2208.7 1763.63,2209.16 1766.84,2209.61 1770.05,2210.04 1773.26,2210.45 1776.48,2210.85 1779.69,2211.23 1782.9,2211.59 
  1786.11,2211.93 1789.32,2212.26 1792.54,2212.57 1795.75,2212.87 1798.96,2213.15 1802.17,2213.41 1805.38,2213.65 1808.6,2213.88 1811.81,2214.09 1815.02,2214.28 
  1818.23,2214.46 1821.44,2214.62 1824.66,2214.76 1827.87,2214.89 1831.08,2215 1834.29,2215.09 1837.5,2215.17 1840.72,2215.22 1843.93,2215.27 1847.14,2215.29 
  1850.35,2215.3 1853.57,2215.29 1856.78,2215.27 1859.99,2215.22 1863.2,2215.17 1866.41,2215.09 1869.63,2215 1872.84,2214.89 1876.05,2214.76 1879.26,2214.62 
  1882.47,2214.46 1885.69,2214.28 1888.9,2214.09 1892.11,2213.88 1895.32,2213.65 1898.53,2213.41 1901.75,2213.15 1904.96,2212.87 1908.17,2212.57 1911.38,2212.26 
  1914.59,2211.93 1917.81,2211.59 1921.02,2211.23 1924.23,2210.85 1927.44,2210.45 1930.66,2210.04 1933.87,2209.61 1937.08,2209.16 1940.29,2208.7 1943.5,2208.22 
  1946.72,2207.72 1949.93,2207.21 1953.14,2206.68 1956.35,2206.13 1959.56,2205.57 1962.78,2204.99 1965.99,2204.39 1969.2,2203.77 1972.41,2203.14 1975.62,2202.49 
  1978.84,2201.83 1982.05,2201.15 1985.26,2200.45 1988.47,2199.73 1991.68,2199 1994.9,2198.25 1998.11,2197.48 2001.32,2196.7 2004.53,2195.9 2007.75,2195.09 
  2010.96,2194.25 2014.17,2193.4 2017.38,2192.53 2020.59,2191.65 2023.81,2190.75 2027.02,2189.83 2030.23,2188.9 2033.44,2187.95 2036.65,2186.98 2039.87,2185.99 
  2043.08,2184.99 2046.29,2183.97 2049.5,2182.94 2052.71,2181.88 2055.93,2180.81 2059.14,2179.73 2062.35,2178.62 2065.56,2177.5 2068.77,2176.37 2071.99,2175.21 
  2075.2,2174.04 2078.41,2172.86 2081.62,2171.65 2084.83,2170.43 2088.05,2169.19 2091.26,2167.94 2094.47,2166.67 2097.68,2165.38 2100.9,2164.08 2104.11,2162.75 
  2107.32,2161.41 2110.53,2160.06 2113.74,2158.69 2116.96,2157.3 2120.17,2155.89 2123.38,2154.47 2126.59,2153.03 2129.8,2151.57 2133.02,2150.1 2136.23,2148.61 
  2139.44,2147.1 2142.65,2145.58 2145.86,2144.04 2149.08,2142.48 2152.29,2140.9 2155.5,2139.31 2158.71,2137.71 2161.92,2136.08 2165.14,2134.44 2168.35,2132.78 
  2171.56,2131.1 2174.77,2129.41 2177.99,2127.7 2181.2,2125.98 2184.41,2124.23 2187.62,2122.47 2190.83,2120.7 2194.05,2118.9 2197.26,2117.09 2200.47,2115.27 
  2203.68,2113.42 2206.89,2111.56 2210.11,2109.68 2213.32,2107.79 2216.53,2105.88 2219.74,2103.95 2222.95,2102.01 2226.17,2100.04 2229.38,2098.07 2232.59,2096.07 
  2235.8,2094.06 2239.01,2092.03 2242.23,2089.98 2245.44,2087.92 2248.65,2085.84 2251.86,2083.74 2255.08,2081.63 2258.29,2079.5 2261.5,2077.35 2264.71,2075.19 
  2267.92,2073.01 2271.14,2070.81 2274.35,2068.6 2277.56,2066.37 2280.77,2064.12 2283.98,2061.85 2287.2,2059.57 2290.41,2057.27 2293.62,2054.96 2296.83,2052.62 
  2300.04,2050.28 2303.26,2047.91 2306.47,2045.53 2309.68,2043.13 2312.89,2040.71 2316.1,2038.28 2319.32,2035.83 2322.53,2033.36 2325.74,2030.88 2328.95,2028.38 
  2332.17,2025.86 2335.38,2023.32 2338.59,2020.77 2341.8,2018.21 2345.01,2015.62 2348.23,2013.02 2351.44,2010.4 2354.65,2007.76 2357.86,2005.11 2361.07,2002.44 
  2364.29,1999.76 2367.5,1997.06 2370.71,1994.34 2373.92,1991.6 2377.13,1988.85 2380.35,1986.08 2383.56,1983.29 2386.77,1980.49 2389.98,1977.66 2393.19,1974.83 
  2396.41,1971.97 2399.62,1969.1 2402.83,1966.21 2406.04,1963.31 2409.26,1960.39 2412.47,1957.45 2415.68,1954.49 2418.89,1951.52 2422.1,1948.53 2425.32,1945.53 
  2428.53,1942.5 2431.74,1939.46 2434.95,1936.41 2438.16,1933.34 2441.38,1930.25 2444.59,1927.14 2447.8,1924.01 2451.01,1920.87 2454.22,1917.72 2457.44,1914.54 
  2460.65,1911.35 2463.86,1908.14 2467.07,1904.92 2470.28,1901.68 2473.5,1898.42 2476.71,1895.14 2479.92,1891.85 2483.13,1888.54 2486.35,1885.22 2489.56,1881.87 
  2492.77,1878.52 2495.98,1875.14 2499.19,1871.75 2502.41,1868.34 2505.62,1864.91 2508.83,1861.47 2512.04,1858 2515.25,1854.53 2518.47,1851.03 2521.68,1847.52 
  2524.89,1843.99 2528.1,1840.45 2531.31,1836.89 2534.53,1833.31 2537.74,1829.71 2540.95,1826.1 2544.16,1822.47 2547.37,1818.83 2550.59,1815.17 2553.8,1811.49 
  2557.01,1807.79 2560.22,1804.08 2563.44,1800.35 2566.65,1796.6 2569.86,1792.84 2573.07,1789.06 2576.28,1785.26 2579.5,1781.45 2582.71,1777.61 2585.92,1773.77 
  2589.13,1769.9 2592.34,1766.02 2595.56,1762.12 2598.77,1758.21 2601.98,1754.27 2605.19,1750.33 2608.4,1746.36 2611.62,1742.38 2614.83,1738.38 2618.04,1734.36 
  2621.25,1730.33 2624.46,1726.28 2627.68,1722.21 2630.89,1718.13 2634.1,1714.03 2637.31,1709.91 2640.52,1705.78 2643.74,1701.63 2646.95,1697.46 2650.16,1693.27 
  2653.37,1689.07 2656.59,1684.86 2659.8,1680.62 2663.01,1676.37 2666.22,1672.1 2669.43,1667.81 2672.65,1663.51 2675.86,1659.19 2679.07,1654.86 2682.28,1650.5 
  2685.49,1646.13 2688.71,1641.75 2691.92,1637.34 2695.13,1632.92 2698.34,1628.49 2701.55,1624.03 2704.77,1619.56 2707.98,1615.07 2711.19,1610.57 2714.4,1606.05 
  2717.61,1601.51 2720.83,1596.95 2724.04,1592.38 2727.25,1587.79 2730.46,1583.19 2733.68,1578.57 2736.89,1573.93 2740.1,1569.27 2743.31,1564.6 2746.52,1559.91 
  2749.74,1555.2 2752.95,1550.48 2756.16,1545.74 2759.37,1540.98 2762.58,1536.21 2765.8,1531.42 2769.01,1526.61 2772.22,1521.78 2775.43,1516.94 2778.64,1512.08 
  2781.86,1507.21 2785.07,1502.32 2788.28,1497.41 2791.49,1492.48 2794.7,1487.54 2797.92,1482.58 2801.13,1477.61 2804.34,1472.61 2807.55,1467.6 2810.77,1462.58 
  2813.98,1457.53 2817.19,1452.47 2820.4,1447.4 2823.61,1442.3 2826.83,1437.19 2830.04,1432.06 2833.25,1426.92 2836.46,1421.76 2839.67,1416.58 2842.89,1411.39 
  2846.1,1406.17 2849.31,1400.94 2852.52,1395.7 2855.73,1390.44 2858.95,1385.16 2862.16,1379.86 2865.37,1374.55 2868.58,1369.22 2871.79,1363.87 2875.01,1358.51 
  2878.22,1353.13 2881.43,1347.73 2884.64,1342.32 2887.86,1336.89 2891.07,1331.44 2894.28,1325.98 2897.49,1320.5 2900.7,1315 2903.92,1309.48 2907.13,1303.95 
  2910.34,1298.4 2913.55,1292.84 2916.76,1287.25 2919.98,1281.66 2923.19,1276.04 2926.4,1270.41 2929.61,1264.76 2932.82,1259.09 2936.04,1253.41 2939.25,1247.71 
  2942.46,1241.99 2945.67,1236.26 2948.88,1230.51 2952.1,1224.74 2955.31,1218.95 2958.52,1213.15 2961.73,1207.34 2964.95,1201.5 2968.16,1195.65 2971.37,1189.78 
  2974.58,1183.9 2977.79,1177.99 2981.01,1172.07 2984.22,1166.14 2987.43,1160.19 2990.64,1154.22 2993.85,1148.23 2997.07,1142.23 3000.28,1136.21 3003.49,1130.17 
  3006.7,1124.12 3009.91,1118.05 3013.13,1111.96 3016.34,1105.85 3019.55,1099.73 3022.76,1093.59 3025.97,1087.44 3029.19,1081.27 3032.4,1075.08 3035.61,1068.87 
  3038.82,1062.65 3042.04,1056.41 3045.25,1050.16 3048.46,1043.88 3051.67,1037.6 3054.88,1031.29 3058.1,1024.97 3061.31,1018.63 3064.52,1012.27 3067.73,1005.9 
  3070.94,999.505 3074.16,993.098 3077.37,986.674 3080.58,980.232 3083.79,973.775 3087,967.3 3090.22,960.808 3093.43,954.3 3096.64,947.775 3099.85,941.233 
  3103.06,934.674 3106.28,928.098 3109.49,921.506 3112.7,914.896 3115.91,908.27 3119.12,901.627 3122.34,894.967 3125.55,888.29 3128.76,881.596 3131.97,874.886 
  3135.19,868.159 3138.4,861.415 3141.61,854.654 3144.82,847.876 3148.03,841.081 3151.25,834.27 3154.46,827.441 3157.67,820.596 3160.88,813.734 3164.09,806.855 
  3167.31,799.96 3170.52,793.047 3173.73,786.118 3176.94,779.172 3180.15,772.209 3183.37,765.229 3186.58,758.232 3189.79,751.218 3193,744.188 3196.21,737.141 
  3199.43,730.077 3202.64,722.996 3205.85,715.898 3209.06,708.783 3212.28,701.652 3215.49,694.504 3218.7,687.339 3221.91,680.157 3225.12,672.958 3228.34,665.742 
  3231.55,658.51 3234.76,651.26 3237.97,643.994 3241.18,636.711 3244.4,629.411 3247.61,622.095 3250.82,614.761 3254.03,607.411 3257.24,600.044 3260.46,592.66 
  3263.67,585.259 3266.88,577.841 3270.09,570.407 3273.3,562.955 3276.52,555.487 3279.73,548.002 3282.94,540.5 3286.15,532.981 3289.37,525.446 3292.58,517.893 
  3295.79,510.324 3299,502.738 3302.21,495.135 3305.43,487.515 3308.64,479.879 3311.85,472.225 3315.06,464.555 3318.27,456.868 3321.49,449.164 3324.7,441.443 
  3327.91,433.705 3331.12,425.951 3334.33,418.18 3337.55,410.391 3340.76,402.586 3343.97,394.765 3347.18,386.926 3350.39,379.07 3353.61,371.198 3356.82,363.309 
  3360.03,355.403 3363.24,347.48 3366.46,339.54 3369.67,331.584 3372.88,323.61 3376.09,315.62 3379.3,307.613 3382.52,299.589 3385.73,291.548 3388.94,283.491 
  3392.15,275.416 3395.36,267.325 3398.58,259.217 3401.79,251.092 3405,242.95 3408.21,234.792 3411.42,226.616 3414.64,218.424 3417.85,210.215 3421.06,201.989 
  3424.27,193.746 3427.48,185.486 3430.7,177.21 3433.91,168.916 3437.12,160.606 3440.33,152.279 3443.55,143.935 3446.76,135.575 3449.97,127.197 3453.18,118.803 
  3456.39,110.391 
  "/>
<path clip-path="url(#clip620)" d="
M3009.93 242.578 L3439.26 242.578 L3439.26 121.618 L3009.93 121.618  Z
  " fill="#ffffff" fill-rule="evenodd" fill-opacity="1"/>
<polyline clip-path="url(#clip620)" style="stroke:#000000; stroke-width:4; stroke-opacity:1; fill:none" points="
  3009.93,242.578 3439.26,242.578 3439.26,121.618 3009.93,121.618 3009.93,242.578 
  "/>
<polyline clip-path="url(#clip620)" style="stroke:#009af9; stroke-width:4; stroke-opacity:1; fill:none" points="
  3047.76,182.098 3274.75,182.098 
  "/>
<path clip-path="url(#clip620)" d="M 0 0 M3326.42 201.785 Q3324.62 206.415 3322.91 207.827 Q3321.19 209.239 3318.32 209.239 L3314.92 209.239 L3314.92 205.674 L3317.42 205.674 Q3319.18 205.674 3320.15 204.84 Q3321.12 204.007 3322.3 200.905 L3323.07 198.961 L3312.58 173.452 L3317.1 173.452 L3325.2 193.729 L3333.3 173.452 L3337.81 173.452 L3326.42 201.785 Z" fill="#000000" fill-rule="evenodd" fill-opacity="1" /><path clip-path="url(#clip620)" d="M 0 0 M3343.69 195.442 L3351.33 195.442 L3351.33 169.077 L3343.02 170.743 L3343.02 166.484 L3351.29 164.818 L3355.96 164.818 L3355.96 195.442 L3363.6 195.442 L3363.6 199.378 L3343.69 199.378 L3343.69 195.442 Z" fill="#000000" fill-rule="evenodd" fill-opacity="1" /></svg>
